<?xml version="1.0" encoding="UTF-8"?>
<svg id="Layer_1" data-name="Layer 1" xmlns="http://www.w3.org/2000/svg" viewBox="0 0 1200 1200">
  <defs>
    <style>
      .cls-1 {
        fill: #090d35;
      }

      .cls-2 {
        fill: #00032b;
      }

      .cls-3 {
        fill: #fdfdfd;
      }
    </style>
  </defs>
  <circle class="cls-2" cx="608.78" cy="584.19" r="551.92"/>
  <g>
    <path class="cls-3" d="M572.78,782.69c-.57-1.85-14.29-2.21-17.36-2.64-145.43-20.35-230.33-131.13-207.48-278.19,13.29-85.5,73.33-160.65,152.25-194.72l30.67,46.42c-40.68,25.72-73.86,64.01-90.83,109.38-21.93,58.62-19.01,131.43,14.33,185.16,25.38,40.9,70.65,68.1,118.42,73.09l-.05-284.55c7.54-155.02,165.93-157.12,249.02-55.93,63.27,77.05,67.24,205.46,15.44,289.39-40.13,65.03-112.64,105.13-188.42,111.08v176h-76v-174.5Z"/>
    <path class="cls-1" d="M648.78,722.2v-299.49c7.42-79.07,74.44-54.67,108.42-8.42,46.9,63.83,49.47,170.27,7,236.83-25.34,39.72-68.37,66.45-115.42,71.09Z"/>
  </g>
</svg>